<?xml version="1.0" encoding="UTF-8"?><svg id="Layer_1" xmlns="http://www.w3.org/2000/svg" viewBox="427 427 1094 1085"><defs><style>.cls-1{fill:#d62a2e;}</style></defs><path class="cls-1" d="M1006.52,1050.12c-9.61,9.36-18.4,19.99-24.57,31.96-5.48,10.61-8.19,17.44-8.19,20.35s.77,4.36,1.85,4.08c14.92-3.96,29.13-28.62,39.24-41.39,9.5-12.35,18.75-24.83,27.08-38.01-13.32,4.97-25.29,13.17-35.41,23.02Z"/><path class="cls-1" d="M884.58,1077.68c-6.06,7.1-11.51,15.6-15.79,23.8-4.7,9.02-7.2,15.11-7.2,18.19s.88,4.5,2.64,4.25c2.46-.35,9.33-6.22,20.61-17.55,7.82-7.86,16.03-15.91,22.46-24.78,8.33-11.49,16.13-23.93,24.04-35.98-19.64,3.2-34.03,18.02-46.77,32.06Z"/><path class="cls-1" d="M737.93,1045.87c1.94-2.56,3.92-4.48,5.95-5.73-7.22,3.62-13.12,5.62-17.7,6.04-4.58.41-8.37-.27-11.36-2.05-2.99-1.77-4.49-4.4-4.49-7.88s1.54-6.88,4.62-10.23c3.08-3.34,5.24-5.07,6.47-5.18,1.23-.11,1.85.06,1.85.5-.26,1.08-.4,1.62-.66,2.7,0,1.5,1.01,2.16,3.04,1.97,5.37-.48,12.76-3.9,22.06-9.9,7.87-5.08,16.14-11.47,22.59-18.38,5.69-6.09,8.59-10.96,8.59-14.58,0-3.08-2.74-4.29-8.19-3.7-11.57,1.25-22.48,5.79-32.7,10.53-12.31,5.7-24.31,13.38-35.47,21.58-11.95,8.79-23.41,18.41-34.09,28.39-10.24,9.57-20.5,19.9-29.26,30.85-7.36,9.2-14.54,18.92-20.15,29.48-5.06,9.53-7.66,17.64-7.66,24.33,0,2.64.77,4.97,2.31,6.96,1.54,2,3.91,3.06,6.8,2.89,16.09-.93,32.03-13.77,44.72-23.06,25.35-18.54,48.46-40.95,70.88-63.39.35-.38.97-1.1,1.85-2.16Z"/><path class="cls-1" d="M1244.79,1072.91c.75-.06,2.42-.97,5.02-2.75,2.6-1.77,6.28-4.74,11.03-8.88,4.76-4.14,10.04-9.03,15.85-14.64,16.3-15.85,30.75-33.5,44.92-51.24-9.78,2.17-20.4,6.8-28.8,11.91-7.64,4.65-15.95,10.79-22.2,17.41-5.76,6.11-10.83,12.37-15.06,18.74-5.41,7.9-11.63,17.68-11.89,27.28-.04,1.46.37,2.22,1.12,2.16Z"/><path class="cls-1" d="M1218.56,1235.83h-5.29v46.99h4.41c5.29,0,12.72-.5,18.39-6.05,2.77-2.65,6.42-7.94,6.42-17.26,0-7.81-2.39-14.49-6.55-18.39-5.17-4.79-11.97-5.29-17.38-5.29Z"/><path class="cls-1" d="M686.34,723.31c3.96-3.95,5.75-10.43,5.75-15.82,0-6.11-2.16-12.22-5.75-16.18-3.95-3.96-11.5-7.19-23.73-7.19h-11.5v46.74h11.5c6.47,0,17.26-.72,23.73-7.55Z"/><path class="cls-1" d="M1503.69,1187.34c-3.71-38.42-16.35-74.43-23.94-109.96l-13.99-65.44-4.41-39.65-4.09-58.51-2.06-86.19,3.22-35.79,1.4-7.77h.01c11.29-62.88,24.3-122.81,39.92-186.02-16.1-21.95-31.96-46.77-50.16-65.63l-71.59-74.19c-36.05,23.45-75.93,38.05-118.62,44.27-27.52-1.01-55.45.8-81.88-1.99-65.37-6.9-133.3-34.06-190.02-64.91-101.7,50.42-199.83,86.87-314.5,72.22-42.66-8.47-85.16-24.44-124.1-49.56l-57.76,64.05-42.65,52.53c-13.32,13.62-11.35,30.42-6.52,47.58,15.3,54.34,27.63,106.5,37.55,163.13,3.73,21.32,4.02,51.64,3.42,74.95l-1.61,63.51c-.73,28.67.83,56.86-4.51,84.54l-11.92,61.89c-9.19,47.68-27.27,94.78-24.88,143.29,3.46,70.31,44.53,147.36,106.41,175.79,38.03,17.47,78.74,23.5,120.47,27.15l63.86,5.58c86.98,7.59,182.79,32.54,256.74,82.27,74.42-51.49,159.43-78.36,250.27-88.52l23.88-2.67,27.23-3.21c28.76-3.4,56.9-7.2,84.37-15.09,86.1-24.73,139-119.31,130.46-207.65ZM1216.65,636.31h137.34v52.85h-75.14v39.91h68.31v52.85h-68.31v94.2h-62.2v-239.81ZM1022.86,636.31h136.26s0,52.85,0,52.85h-74.06v39.91h70.11v52.85h-70.11v41.35s74.06,0,74.06,0v52.85h-136.26v-239.81ZM1155.68,954.12c0,5.02-2.33,10.34-7,15.96-4.67,5.63-9.54,8.76-14.6,9.39-5.07.64-7.6-1.68-7.6-6.96s2.22-10.61,6.67-15.98c4.45-5.36,9.36-8.37,14.73-9.02,2.38-.29,4.27.15,5.68,1.3,1.41,1.15,2.11,2.92,2.11,5.3ZM965.33,636.31v52.85h-74.06s0,39.91,0,39.91h70.11v52.85h-70.11v41.35s74.06,0,74.06,0v52.85h-136.26s0-239.81,0-239.81h136.26ZM588.9,636.31h92.76c17.26,0,37.75,2.52,52.49,18.7,8.27,8.99,14.74,23.73,14.74,44.94,0,10.43-1.8,19.41-6.83,29.48-5.03,9.35-10.43,14.74-19.41,18.7,12.58,1.44,25.17,7.19,32.72,14.38,9.71,9.35,16.18,24.81,16.18,43.86,0,22.65-8.63,38.11-17.62,47.1-12.94,13.3-35.59,22.65-65.07,22.65h-99.95v-239.81ZM734.76,1117.91c-22.77,21.92-47.34,41.94-72,61.68-13.99,16.28-28.7,31.95-43.33,47.66-4.14,4.32-8.72,6.53-13.74,6.59-9.78.13-14.67-2.62-14.67-8.08,0-2.38,1.89-6.16,5.68-11.38,10.71-14.59,26.14-25.91,40.03-37.19,8.02-9.2,16.11-18.33,24.18-27.49,13.48-15.5,27.75-30.88,39.24-47.98-8.82,8.9-17.59,17.96-27.22,25.9-6.11,5.04-11.87,9.4-17.11,13.09-5.24,3.69-10.06,6.68-14.47,8.96-13.4,7.24-33.26,13.97-45.58,1.16-4.58-5-6.82-12.43-6.87-22.11-.06-11.35,3.8-22.2,8.06-32.2,5.23-12.28,13.12-24.16,21.53-35,9.67-12.45,20.62-23.96,31.97-34.45,11.92-11.02,25.08-21.65,38.45-30.76,13.1-8.93,27.53-16.98,42.01-23.17,13.06-5.58,27.06-10.07,41.62-11.73,4.48-.51,8.72-.24,12.68.79,3.96,1.03,6.78,2.28,8.46,3.75,3.96,3.49,5.95,10.03,5.95,19.62,0,4.49-2.92,10.27-8.59,17.29-6.03,7.46-13.77,14.66-21.21,20.54-7.54,5.96-16.28,11.92-25.04,16.24,1.85-.8,3.74-1.3,5.68-1.5,6.52-.67,10.83.06,12.95,2.21.53.47.79,1.06.79,1.76s-1.19,2.55-3.57,5.54c-23.51,29.88-46.3,60.25-68.17,91.35,7.74-6.53,15.33-13.45,22.46-20.65,3.61-3.56,8.01-5.57,13.21-6.05,3.79-.35,6.12-.08,7,.8.88.88,1.32,1.66,1.32,2.32s-.57,1.49-1.72,2.48ZM834.04,1091.48c-2.78.37-4.93-.36-6.47-2.18-1.54-1.82-2.31-4.1-2.31-6.83,0-6.08,3.26-13.37,9.78-21.9-.11-.09-.16-.14-.26-.23-8.54,4.92-15.07,12.87-21.6,19.99-9.97,10.87-19.89,22.16-29.33,33.63-9.3,11.3-17.81,23.22-26.23,35.21-2.73,4.08-5.04,6.21-6.94,6.4-1.89.19-4.4-.15-7.53-1.03-3.13-.88-5.02-1.56-5.68-2.02s-.99-1.31-.99-2.55c0-1.23.35-2.7,1.06-4.39.7-1.7,2-4.14,3.9-7.31,1.89-3.18,4.75-8.31,8.59-15.39,5.86-10.81,11.89-21.56,17.9-32.28,4.88-8.71,9.78-17.43,14.53-26.21,3.35-6.2,6.08-10.75,8.19-13.64,3.96-5.49,10.66-8.8,20.08-9.99,2.11-.27,3.17.92,3.17,3.56,0,4.14-3.83,12.43-11.49,24.83-2.22,3.6-3.33,5.4-5.55,9,13.49-16.29,30.73-39.03,53.11-42.31,3.57-.53,6.59.17,8.92,2,2.33,1.83,3.5,4.46,3.5,7.9s-2.44,9.53-7.33,18.27c-4.89,8.74-9.4,16.16-13.54,22.27-2.2,3.12-4.69,4.86-7.46,5.23ZM925.55,1299.83c-2.65,2.65-5.92,3.91-9.2,3.91-2.77,0-6.17-.88-9.2-3.91-1.64-1.64-3.91-4.66-3.91-9.2s2.27-7.56,3.91-9.2c3.02-3.02,6.42-3.91,9.2-3.91,3.15,0,6.55,1.26,9.32,4.03,2.14,2.14,3.65,4.91,3.65,9.07s-1.51,6.93-3.78,9.2ZM1000.75,1294.67c-7.18,7.18-15.87,8.57-24.82,8.57-5.29,0-10.33-.5-16.5-2.77-1.39-.5-6.68-2.52-12.72-6.68l9.32-17.64c4.66,4.41,11.72,8.57,19.27,8.57,4.41,0,7.05-1.39,8.44-2.9,1.26-1.26,2.14-3.15,2.14-5.29,0-1.64-.63-3.53-2.39-5.04-2.14-1.89-5.42-2.77-10.83-4.41l-5.67-1.76c-3.53-1.13-8.69-3.02-12.09-6.8-4.28-4.66-4.79-10.58-4.79-14.87,0-10.33,4.03-16.63,7.68-20.28,4.28-4.28,11.34-7.94,21.54-7.94,8.31,0,18.01,2.65,25.95,6.8l-8.69,17.01c-6.55-5.17-11.46-5.67-14.36-5.67-2.14,0-5.04.5-7.18,2.52-1.26,1.26-2.14,2.65-2.14,4.54,0,1.51.25,2.65,1.13,3.78.63.76,2.14,2.27,7.31,3.78l6.68,2.02c5.29,1.64,10.83,3.53,15.24,8.31,4.28,4.54,5.42,9.2,5.42,14.99,0,7.68-1.89,15.12-7.94,21.16ZM1078.35,1235.83h-17.89v65.51h-21.79v-65.51h-17.89v-18.52h57.57v18.52ZM1167.54,1265.56c0,8.82-.38,18.01-9.45,27.21-7.05,7.18-15.87,10.46-27.71,10.46-13.23,0-22.68-4.54-27.84-10.08-7.31-7.94-8.19-18.64-8.19-27.59v-48.25h21.79v49.76c0,3.53.13,8.94,4.28,12.98,2.52,2.39,6.55,4.03,10.33,4.03s7.68-1.51,10.08-3.65c5.04-4.41,4.91-10.58,4.91-15.24v-47.87h21.79v48.25ZM1173.65,1081.08c0-5.68,1.5-12.3,4.49-19.85,2.99-7.55,6.06-14.06,9.18-19.54,3.13-5.48,6.98-11.86,11.56-19.14,4.58-7.28,7-11.76,7.27-13.46-.11-.1-.16-.14-.26-.24-8.56,4.61-15.1,12.41-21.6,19.35-9.72,10.39-19.4,21.27-28.47,32.38-9.53,11.67-18.19,24.06-26.82,36.45-2.91,4.16-5.28,6.36-7.13,6.6-1.85.24-4.34-.03-7.46-.81-.8-.2-1.52-.39-2.16-.56-9.11,6.13-17.14,10.09-23.94,11.03-6.96.97-12.95-.52-17.97-4.47-2.4-1.89-4.22-3.88-5.47-5.97-.86.89-1.74,1.79-2.65,2.71-5.93,6.01-16.19,12.67-24.64,14.25-9.55,1.78-20.3-2.56-19.82-13.81.42-9.69,4.37-19.48,7.93-28.54-6.82,9.38-13.66,18.65-21.8,26.95-9.43,10.09-22.13,21.04-35.8,23.44-5.49.97-9.8-.48-12.49-4.03-.64-.84-1.19-1.8-1.68-2.86-.4.4-.81.79-1.22,1.2-8.68,8.37-16.56,13.1-23.65,14.17-7.09,1.07-12.31-.3-15.66-4.12-3.35-3.81-5.02-8.34-5.02-13.58,0-5.24.88-9.97,2.64-14.2-7.12,10.35-15.57,19.79-25.17,27.89-9.46,7.99-17.2,12.39-23.19,13.23-5.99.84-10.88-.34-14.67-3.38-4.78-3.83-7.27-9.73-7.27-17.7s1.78-16.23,5.35-24.77,8.32-16.55,14.07-24.01c5.67-7.35,12.27-14.6,19.16-20.89,11.6-9.99,24.74-20.88,40.43-23.15,4.73-.68,8.63-.51,11.63.62,2.99,1.13,4.89,2.83,5.68,5.08,2.11-3.49,3.9-5.77,5.35-6.83,1.45-1.06,3.63-1.81,6.54-2.25,6.69-1.02,10.04.76,10.04,5.33,0,2.47-.57,4.36-1.72,5.68-1.15,1.32-3.59,5.51-7.33,12.55-4.59,8.63-8.63,17.85-12.42,26.73-3.59,8.41-7.13,18-8.79,27.16-.26.92-.4,2.17-.4,3.76,0,4.84,1.32,7.07,3.96,6.67,2.64-.4,5.77-2.13,9.38-5.19,3.61-3.06,6.83-6.24,9.64-9.53.34-.4.67-.81,1.01-1.2,1.46-7.4,4.83-14.49,7.97-20.98,5.44-11.21,13.2-21.91,21.73-31.4,8.57-9.53,18.37-18.54,28.87-25.28,8.76-5.62,18.4-11.21,29.2-12.77,2.81-.41,6.12.81,9.91,3.69,4.93-8.67,9.53-17.53,14.14-26.37,13.39-24.38,26.14-50.16,42.81-72.56,3.7-5.34,9.47-8.53,17.31-9.54,1.67-.22,3,.14,3.96,1.08.97.93,1.45,1.95,1.45,3.05s-.86,3.24-2.58,6.41c-1.72,3.17-5.67,10.11-11.82,20.82-4.82,8.4-9.65,16.8-14.4,25.24-16.5,29.25-32.86,58.78-47.03,89.09-6.28,13.42-14.69,28.24-17.04,43.21v1.06c0,3.61,1.32,5.22,3.96,4.83,2.64-.39,5.83-2.1,9.58-5.11,3.74-3.01,7.02-6.13,9.84-9.36,2.82-3.23,5.66-6.57,8.52-10.01.42-.51.81-.97,1.18-1.42.07-.14.13-.28.2-.43,4.53-9.34,9.39-18.67,14.53-27.69,4.85-8.5,7.27-13.1,7.27-13.76s-.9-1.84-2.71-3.52c-1.8-1.69-2.71-2.99-2.71-3.92s1.83-3.6,5.48-8.03c3.65-4.42,8.1-8.91,13.34-13.45,5.24-4.54,9.25-6.98,12.02-7.34,2.77-.36,5.27.55,7.46,2.73,2.2,2.18,3.59,4.66,3.3,6.32-3.16,18.5-20.83,41.59-31.44,61.37-.26.56-.99,1.83-2.18,3.8-1.19,1.97-2.11,3.59-2.77,4.87-.66,1.28-1.43,2.82-2.31,4.61-1.76,3.77-2.64,6.84-2.64,9.22,0,3,2.02,4.21,6.08,3.65,4.05-.56,8.26-2.52,12.62-5.88,4.36-3.36,8.12-6.92,11.3-10.68,1.87-2.25,3.54-4.24,5.05-5.99,5.66-10.54,11.47-21.01,17.28-31.47,4.86-8.76,9.77-17.51,14.53-26.34,3.35-6.21,6.08-10.75,8.19-13.64,3.96-5.48,10.66-8.76,20.08-9.76,2.11-.23,3.17.98,3.17,3.63,0,4.14-3.83,12.33-11.49,24.63-2.22,3.57-3.33,5.36-5.55,8.94,11.24-13.28,23.03-27.68,38.58-36.13,5.11-2.69,9.71-4.21,13.81-4.57,4.1-.36,7.36.47,9.78,2.46,2.42,2,3.63,4.35,3.63,7.03s-.92,5.98-2.77,9.87c-1.85,3.9-3.72,7.4-5.62,10.51-1.9,3.11-4.38,7.05-7.46,11.82-3.08,4.77-4.76,7.37-5.02,7.79-.26.42-.95,1.54-2.05,3.36-1.1,1.82-1.92,3.15-2.44,3.99-.53.84-1.41,2.31-2.64,4.41-1.23,2.1-2.23,3.85-2.97,5.24-.75,1.39-1.67,3.12-2.77,5.16-1.1,2.05-1.98,3.81-2.64,5.28-.66,1.47-1.34,3.09-2.05,4.83-1.23,3.21-1.85,5.82-1.85,7.85,0,3.88,2.64,5.54,7.93,5.02,2.82-.28,6.36-2.03,10.64-5.24,4.27-3.21,8.12-6.64,11.56-10.28.37-.39.72-.77,1.07-1.15,1.24-5.12,2.98-10.16,5.01-14.3,4.41-9.02,11.04-19.02,17.97-26.45,7.05-7.56,15.45-15.17,23.71-21.39,7.45-5.61,16.36-11.13,25.04-14.82,8.17-3.47,15.28-5.34,21.27-5.51,5.99-.17,9.82,1.48,11.49,4.88,3.44-4.03,7.72-6.2,12.82-6.53,1.49-.1,3.35-.16,5.55-.17,2.2-.01,3.57.27,4.1.84.53.57,1.01,1.65,1.45,3.23.44,1.58.71,2.47.79,2.64.09.18.13.46.13.86s-.22.88-.66,1.45c-.44.57-.95,1.12-1.52,1.65-.57.53-.9.84-.99.93-21.51,31.37-41.12,63.84-59.72,97.01,17.29-15.68,35.26-31.01,56.28-41.51,1.06-.53,2.07-.8,3.04-.81,1.41,0,2.33.9,2.77,2.7.44,1.81.66,4.38.66,7.73s-.2,5.42-.59,6.21-2.44,2.38-6.14,4.77c-3.7,2.4-8.5,5.52-14.4,9.41-5.9,3.89-12.15,8.21-18.76,12.99-14.34,10.91-27.98,22.48-39.11,36.46-10.14,12.74-20.17,26.12-28.41,40.44-2.11,3.94-5.68,6.1-10.7,6.51-9.95.8-15.01-3.54-14.93-12.88.1-11.51,6.68-22.25,14.14-30.65,7.05-7.95,13.52-14.66,19.42-19.82,5.9-5.17,9.12-8.05,9.64-8.7,9.06-14.23,17.81-28.66,26.56-43.08-8.42,9.25-17.57,17.96-27.68,25.32-8.91,6.48-15.78,9.79-20.02,10.26-7.62.85-15.37-2.07-18.62-8.37-5.25,4.61-10.8,8.84-17.05,11.96-3.88,1.69-8.15,2.72-12.82,3.11-4.67.38-9.29-1.16-13.87-4.63-4.58-3.47-6.87-8.04-6.87-13.72ZM1254.22,1288.62c-6.68,6.68-17.89,12.72-32.25,12.72h-30.49v-84.03h28.6c8.44,0,22.55,1.13,33.38,11.59,9.83,9.45,11.72,21.54,11.72,30.61,0,11.09-2.77,20.91-10.96,29.1ZM1322.62,1261.03v40.31h-21.92v-40.31l-30.36-43.71h26.08l15.87,22.93,15.24-22.93h26.46l-31.37,43.71Z"/><path class="cls-1" d="M703.59,817.87c2.88-3.24,5.03-8.63,5.03-15.46,0-7.55-2.52-13.66-6.11-17.26-7.55-7.55-23.01-7.91-38.47-7.91h-12.94v50.33h14.02c17.26,0,31.64-1.8,38.47-9.71Z"/></svg>